<svg xmlns="http://www.w3.org/2000/svg" version="1.1" viewBox="-5.0 -10.0 110.0 135.0">
 <path d="m25.715 28.641c2.2188-4.4375 6.0469-7.8594 10.707-9.5742 4.6562-1.7109 9.7891-1.5781 14.355 0.36719 4.5625 1.9492 8.2148 5.5625 10.203 10.109l1.6406-1.2148c0.30859-0.22266 0.71484-0.26172 1.0586-0.09375 0.33984 0.16406 0.56641 0.50781 0.57812 0.88672l0.51953 12.117c0.015625 0.33984-0.14062 0.66797-0.41406 0.86719-0.27344 0.20312-0.63281 0.25781-0.95312 0.14453l-11.438-4.0586c-0.36719-0.12891-0.63281-0.45703-0.67969-0.84375-0.046875-0.38672 0.12891-0.76562 0.45312-0.98438l2.8555-2.1055c-2.3906-4.5234-6.1836-7.7422-11.301-8.6328-4.125-0.60938-8.3359 0.078125-12.051 1.9688-1.418 0.68359-2.7734 1.4883-4.0508 2.4062-0.39453 0.28125-0.93359 0.25-1.293-0.078125-0.35547-0.32812-0.4375-0.85938-0.19531-1.2812zm35.457 3.3125c-0.25781 0.21484-0.60547 0.28906-0.92969 0.19922-0.32422-0.089844-0.58594-0.33203-0.69531-0.64844-2.0781-5.832-7.0977-10.125-13.184-11.273-6.0859-1.1484-12.324 1.0195-16.383 5.6953 0.12891-0.0625 0.25391-0.125 0.38281-0.1875v0.003907c4.0977-2.0781 8.7383-2.8242 13.281-2.1406 4.543 0.78516 8.5781 3.3672 11.203 7.1602 0.74609 1.0508 1.3984 2.1641 1.957 3.3242 0.24219 0.44922 0.11719 1.0078-0.29297 1.3125l-2.0352 1.5 8.1797 2.8984-0.37109-8.6719-1.1172 0.82422zm-54.109 34.602h5.5391c0.35547-7.4336 4.5312-14.156 11.035-17.773 6.5078-3.6172 14.418-3.6172 20.926 0 6.5039 3.6172 10.68 10.34 11.039 17.773h5.543v-3.6016l-3.6914 0.003906c-0.51172 0-0.94531-0.375-1.0195-0.87891-0.26172-1.3203-0.61719-2.6172-1.0703-3.8867-0.44922-1.2656-0.99609-2.4961-1.6328-3.6797-0.21875-0.40625-0.14062-0.91016 0.19531-1.2305l2.7734-2.8828-5.6406-6.6836-2.6602 2.7617c-0.36328 0.375-0.94922 0.41797-1.3633 0.097657-2.3906-1.8438-5.1367-3.1641-8.0664-3.8828-0.46094-0.11328-0.78906-0.52734-0.78516-1v-4.2109h-8.1523v4.2188c0 0.50781-0.36719 0.94141-0.87109 1.0195-1.2383 0.30469-2.4453 0.71875-3.6055 1.2461-1.207 0.53906-2.3633 1.1875-3.4531 1.9336-0.4375 0.30469-1.0352 0.22266-1.375-0.18359l-2.5234-2.8867-5.918 6.3711 2.6797 3.0664c0.28906 0.33594 0.33203 0.82031 0.10547 1.1992-1.5898 2.6758-2.707 5.6055-3.2969 8.6602-0.097657 0.48438-0.51953 0.83203-1.0117 0.83203h-3.6992v3.6016zm45.363 14.102c11.594-0.71094 20.066-8.4102 19.148-20.523-0.039063-0.50781-0.44141-0.91406-0.94922-0.94922l-2.4727-0.28125 5.6328-6.6016 4.0156 7.6992-1.4414-0.16406c-0.33203-0.039063-0.66406 0.089843-0.88672 0.33984-0.22266 0.25391-0.30859 0.59766-0.23047 0.92578 1.0977 6.082-1.1094 12.293-5.8047 16.316-4.6953 4.0234-11.168 5.2578-17.012 3.2422zm25.027-18.625c0.55078 4.9375-0.80469 9.9023-3.7969 13.871-2.9883 3.9727-7.3828 6.6484-12.281 7.4844-4.8984 0.83594-9.9336-0.23438-14.07-2.9883-0.39844-0.26563-0.55859-0.77344-0.38672-1.2188 0.16797-0.44922 0.625-0.71875 1.1016-0.65625 1.5508 0.15234 3.1094 0.17187 4.6641 0.054687 9.8906-0.75781 17.285-7.0664 16.887-17.441l-3.5703-0.40625c-0.37891-0.042969-0.69922-0.28906-0.83984-0.64453-0.14062-0.35156-0.074218-0.75391 0.17188-1.043l7.8789-9.2344c0.21875-0.25781 0.55469-0.39062 0.89453-0.35156 0.33984 0.039063 0.63672 0.24219 0.79297 0.54297l5.5781 10.699h0.003907c0.20312 0.33594 0.19922 0.75781-0.011719 1.0898-0.21094 0.33203-0.58984 0.51172-0.98047 0.46875l-2.0312-0.23047zm3.0508-16.754v-3h-5.375v3zm1.0352 2.0625h-2.5781c0.56641 0.87109 1.5352 1.3945 2.5742 1.3945 1.0391 0 2.0078-0.52344 2.5742-1.3945zm1.0273-5.0586v3h5.375v-3zm-8.0547-4.3516v2.3398-0.003906c-0.83984 0.19531-1.4375 0.94531-1.4414 1.8086v3.4102c0.003907 1.0234 0.83203 1.8516 1.8516 1.8555h1.7695c0.71484 2.0664 2.6602 3.4531 4.8438 3.4531 2.1875 0 4.1328-1.3867 4.8438-3.4531h1.7695c1.0234-0.003906 1.8477-0.83203 1.8516-1.8555v-3.4102c-0.003906-0.86328-0.60156-1.6133-1.4453-1.8086v-2.3359c5.1484-3.1484 7.5742-9.332 5.9375-15.137-1.6328-5.8047-6.9297-9.8164-12.961-9.8164-6.0273 0-11.324 4.0117-12.957 9.8164-1.6367 5.8047 0.78906 11.988 5.9375 15.137zm7.1133 0.30859 4.875-0.003906v1.9844h-9.9258v-1.9844zm5.2188-10.441v-0.003906c0.23047 0.23047 0.32812 0.55859 0.26562 0.875-0.0625 0.32031-0.28125 0.58594-0.57812 0.71094-0.30078 0.12109-0.64453 0.089844-0.91406-0.089844-0.26953-0.18359-0.42969-0.48437-0.42969-0.80859 0-0.39453 0.23828-0.74609 0.60156-0.89453 0.35938-0.15234 0.77734-0.070313 1.0547 0.20703zm-9.2422 0v-0.003906c0.23047 0.23047 0.32813 0.55859 0.26563 0.875-0.0625 0.32031-0.28125 0.58594-0.58203 0.71094-0.29688 0.12109-0.64062 0.089844-0.91016-0.089844-0.26953-0.18359-0.42969-0.48437-0.42969-0.80859 0-0.39453 0.23438-0.75 0.59766-0.89844 0.36328-0.15234 0.78125-0.066406 1.0586 0.21094zm-0.6875-2.3477v-0.003907c-1.0586 0-2.043 0.55469-2.5938 1.4609-0.54687 0.90625-0.58594 2.0352-0.09375 2.9727 0.48828 0.94141 1.4336 1.5547 2.4922 1.625 1.0586 0.066406 2.0742-0.42188 2.6797-1.293l1.1016 0.30078v5.6758h-4.9102c-4.3633-2.6641-6.4258-7.9023-5.043-12.824 1.3828-4.9258 5.8711-8.3242 10.984-8.3242s9.6016 3.3984 10.984 8.3242c1.3828 4.9219-0.67969 10.16-5.043 12.824h-4.9102v-5.6797l1.1016-0.30078h0.003906c0.84375 1.207 2.4297 1.6367 3.7656 1.0156 1.3359-0.62109 2.0312-2.1133 1.6523-3.5352-0.38281-1.4219-1.7305-2.3633-3.1992-2.2344-1.4648 0.13281-2.625 1.2969-2.75 2.7656l-1.6016 0.42969-1.6016-0.42969h0.003907c-0.13281-1.5703-1.4453-2.7773-3.0195-2.7773zm3.5938-19.039c-0.011718-0.27734 0.09375-0.54688 0.28906-0.75 0.19531-0.19922 0.46094-0.3125 0.73828-0.3125 0.28125 0 0.54688 0.11328 0.74219 0.3125 0.19531 0.20312 0.29688 0.47266 0.28906 0.75v4.0742c0.007813 0.27734-0.09375 0.55078-0.28906 0.75-0.19531 0.19922-0.46094 0.3125-0.74219 0.3125-0.27734 0-0.54297-0.11328-0.73828-0.3125s-0.30078-0.47266-0.28906-0.75zm8.9727 1.7305h-0.003907c0.32422-0.46484 0.96484-0.58203 1.4297-0.26172 0.46875 0.32422 0.58594 0.96484 0.26172 1.4297l-2.4062 3.4688c-0.32031 0.46875-0.96094 0.58594-1.4258 0.26172-0.46875-0.32031-0.58594-0.96094-0.26563-1.4258l2.4062-3.4688zm-17.582 0.88672c-0.15625-0.22266-0.22266-0.5-0.17188-0.77344 0.046876-0.26953 0.19922-0.50781 0.42578-0.66797 0.22656-0.15625 0.50781-0.21484 0.77734-0.16016 0.26953 0.050781 0.50781 0.20703 0.66016 0.4375l2.4102 3.4688c0.32422 0.46875 0.20703 1.1055-0.26172 1.4297-0.46484 0.32422-1.1055 0.20703-1.4297-0.26172zm-29.414 55.102h-3.6016v-4.3516zm-19.984 2.4258h-7.832c0.35156-6.6992 4.1328-12.746 10.004-16 5.8672-3.25 13-3.25 18.867 0 5.8711 3.2539 9.6484 9.3008 10.004 16h-7.832v-1.3984c0-0.25781-0.097657-0.50781-0.27344-0.69922l-6.7578-8.1562c-0.19531-0.26172-0.50391-0.41406-0.82813-0.41406h-13.605c-0.96094 0.003906-1.7422 0.78516-1.7461 1.7461zm5.0312 5.0078c-0.57031 0-1.0312-0.46094-1.0312-1.0312s0.46094-1.0312 1.0312-1.0312h12c0.57031 0 1.0312 0.46094 1.0312 1.0312s-0.46094 1.0312-1.0312 1.0312zm0-7.8047c-0.55859-0.019531-1-0.47266-1-1.0312 0-0.55859 0.44141-1.0117 1-1.0312h5.5078-0.003906c0.28125-0.007812 0.55078 0.097657 0.75 0.28906 0.20312 0.19531 0.31641 0.46484 0.31641 0.74219 0 0.27734-0.11328 0.54688-0.31641 0.73828-0.19922 0.19531-0.46875 0.30078-0.75 0.29297zm-3.0117 11.332h-1.9805v1.0469c0 0.46875-0.31641 0.875-0.76562 0.99219-0.57813 0.15625-1.1328 0.38281-1.6562 0.67578-0.41016 0.28516-0.96484 0.23828-1.3164-0.11719l-0.74219-0.74219-1.3984 1.3984 0.73828 0.74219-0.003907 0.003906c0.33203 0.33203 0.39844 0.84375 0.16016 1.2461-0.30078 0.51953-0.53516 1.0742-0.69922 1.6484-0.089844 0.49219-0.51562 0.84766-1.0117 0.85156h-1.043v1.9805h1.0469v-0.003906c0.46875 0 0.875 0.31641 0.99609 0.76953 0.15234 0.57812 0.37891 1.1328 0.67188 1.6562 0.28516 0.41016 0.23828 0.96484-0.11719 1.3164l-0.74219 0.74219 1.3984 1.3984 0.74219-0.73828 0.003906 0.003907c0.33203-0.33203 0.84375-0.39844 1.2461-0.16016 0.51953 0.29688 1.0742 0.53125 1.6523 0.69141 0.48828 0.089843 0.84766 0.51562 0.84766 1.0156v1.0469h1.9805v-1.0469h-0.003906c0.003906-0.46875 0.32031-0.875 0.77344-0.99219 0.57422-0.15625 1.1289-0.38281 1.6523-0.67578 0.41016-0.28516 0.96484-0.23828 1.3203 0.11719l0.74219 0.74219 1.3984-1.3984-0.73828-0.74219v-0.003906c-0.33203-0.33203-0.39844-0.84375-0.16016-1.2461 0.29688-0.51953 0.53125-1.0742 0.69531-1.6523 0.085938-0.48828 0.51562-0.84766 1.0117-0.84375h1.0469v-1.9805h-1.0469c-0.46484 0-0.875-0.31641-0.99219-0.76953-0.15625-0.57812-0.38281-1.1328-0.67578-1.6562-0.28516-0.41016-0.23828-0.96484 0.11719-1.3164l0.74219-0.74219-1.3984-1.3984-0.74219 0.73828h-0.003906c-0.33203 0.32812-0.84375 0.39453-1.2461 0.15625-0.51953-0.29688-1.0742-0.53125-1.6484-0.69531-0.49219-0.085938-0.84766-0.51563-0.84766-1.0117v-1.0469zm0.039063-2.0625 0.003906-15.078h12.262v7.2109l-0.003907-0.003906c0 0.57031 0.46094 1.0312 1.0312 1.0312h5.8008v17.32h-9.3242v-1.707c0-0.57031-0.46094-1.0312-1.0312-1.0312h-1.3242l-0.31641-0.76172 0.64453-0.64453h6.2422c0.55859-0.015625 1-0.47266 1-1.0273 0-0.55859-0.44141-1.0156-1-1.0312h-6.2617l-2.5469-2.5469c-0.40234-0.40234-1.0547-0.40234-1.457 0l-0.93359 0.9375-0.76172-0.31641v-1.3203c0-0.57031-0.46094-1.0312-1.0312-1.0312zm-3.0508 0h0.003907c-0.57031 0-1.0312 0.46094-1.0312 1.0312v1.3242l-0.76172 0.31641-0.9375-0.9375c-0.40234-0.40234-1.0547-0.40234-1.457 0l-2.8555 2.8594v-0.003906c-0.19141 0.19531-0.30078 0.45703-0.30078 0.73047 0 0.27344 0.10938 0.53516 0.30078 0.72656l0.93359 0.93359-0.31641 0.76172-1.3203 0.003907c-0.57031 0-1.0312 0.46094-1.0312 1.0312v4.0391c0 0.57031 0.46094 1.0312 1.0312 1.0312h1.3242l0.31641 0.76172-0.93359 0.9375-0.003906-0.003907c-0.19141 0.19531-0.30078 0.45703-0.30078 0.73047 0 0.27344 0.10938 0.53516 0.30078 0.72656l2.8555 2.8555v0.003907c0.19531 0.19141 0.45703 0.30078 0.73047 0.30078 0.27344 0 0.53516-0.10938 0.72656-0.30078l0.9375-0.93359 0.76172 0.31641v1.3242-0.003906c0 0.56641 0.46094 1.0312 1.0312 1.0312h4.0391c0.57031 0 1.0312-0.46484 1.0312-1.0312v-1.3242l0.76172-0.31641 0.93359 0.93359v0.003907c0.19531 0.19141 0.45703 0.30078 0.73047 0.30078 0.27344 0 0.53516-0.10938 0.72656-0.30078l2.8594-2.8555v-0.003906c0.40234-0.40234 0.40234-1.0547 0-1.457l-0.9375-0.9375 0.31641-0.76172 1.3281 0.003906c0.56641 0 1.0273-0.46094 1.0273-1.0312v-0.27344h9.6367c0.96484-0.007812 1.7422-0.78516 1.7461-1.7461v-15.207h16.473c0.27344 0 0.53516-0.10938 0.72656-0.30078 0.19141-0.19531 0.30078-0.45703 0.30078-0.73047v-5.6602c0-0.57031-0.46094-1.0312-1.0273-1.0312h-3.8984c-0.52344-2.3203-1.3281-4.5664-2.3984-6.6914l2.9375-3.0508v0.003906c0.36719-0.38281 0.38281-0.97656 0.042969-1.3789l-6.9688-8.2617c-0.17578-0.20703-0.42578-0.33984-0.69922-0.35938-0.26953-0.023438-0.53906 0.0625-0.75 0.23828l-2.8984 3.0078c-2.2148-1.5781-4.6836-2.7617-7.3008-3.5v-4.4492c0-0.56641-0.46094-1.0273-1.0312-1.0273h-10.219c-0.57031 0-1.0312 0.46094-1.0312 1.0273v4.4453c-2.2148 0.625-4.3242 1.5664-6.2656 2.8008l-2.7031-3.082c-0.19141-0.21875-0.46875-0.34375-0.75781-0.35156-0.28906-0.003906-0.57031 0.11719-0.76563 0.32812l-7.332 7.8789c-0.37109 0.39844-0.36719 1.0195 0.011719 1.4141l2.7734 3.1719c-1.3789 2.4531-2.3945 5.0938-3.0078 7.8398h-3.8906c-0.56641 0-1.0273 0.46094-1.0312 1.0273v5.6602c0 0.57031 0.46094 1.0312 1.0312 1.0312h16.469v4.4102zm4.3477 8.4727c0.77344 0.77734 1.1133 1.8867 0.89844 2.9648-0.21484 1.0742-0.95312 1.9727-1.9648 2.3945-1.0156 0.41797-2.1719 0.30469-3.082-0.30469-0.91406-0.60938-1.4609-1.6328-1.4609-2.7305 0-1.3281 0.80078-2.5273 2.0273-3.0352 1.2266-0.51172 2.6406-0.23047 3.582 0.71094zm-2.3242-3.0234c2.1641 0 4.1133 1.3047 4.9414 3.3008 0.82422 2 0.36719 4.2969-1.1602 5.8281-1.5312 1.5273-3.8281 1.9844-5.8281 1.1602-1.9961-0.82812-3.3008-2.7773-3.3008-4.9414 0-2.9531 2.3945-5.3477 5.3477-5.3477z" fill-rule="evenodd"/>
</svg>